<svg width="141" height="144" viewBox="0 0 141 144" fill="none" xmlns="http://www.w3.org/2000/svg">
<path d="M49.4862 14.0839L71.4862 8.5838L51.4862 39.0838L33.9862 68.5838L65.9862 68.5838L77.4862 83.7514L5.76432 83.7514L49.4862 14.0839Z" fill="#7DC1FF"/>
<path d="M65.7378 69.0838L76.4796 83.2514L6.66842 83.2514L49.8027 14.5202L70.3668 9.37904L51.0681 38.8096L51.0619 38.819L51.0562 38.8287L33.5562 68.3287L33.1082 69.0838L33.9862 69.0838L65.7378 69.0838Z" stroke="white" stroke-opacity="0.96"/>
<path d="M35.9862 67.5837L51.9862 40.5837L72.4862 9.08383L124.986 82.0838L113.986 98.5838L72.4862 38.5837L57.9862 67.5837L35.9862 67.5837Z" fill="#7DC1FF"/>
<path d="M124.378 82.0946L113.979 97.6938L72.8974 38.2993L72.4168 37.6045L72.039 38.3601L57.6772 67.0837L36.8637 67.0837L52.411 40.8477L72.5068 9.96884L124.378 82.0946Z" stroke="white" stroke-opacity="0.96"/>
<path d="M72.4862 41.0838L113.486 100.084L18.4862 102.084L6.98621 84.5838L78.9862 84.5838L64.9862 66.0838L61.9862 62.0838L72.4862 41.0838Z" fill="#FF9999"/>
<path d="M18.7522 101.578L7.91308 85.0838L78.9862 85.0838H79.9916L79.3849 84.2821L65.3862 65.7838L65.3849 65.7821L62.5716 62.031L72.5565 42.0612L112.544 99.6035L18.7522 101.578Z" stroke="white" stroke-opacity="0.96"/>
<path d="M15.3825 136.084V114.266H19.9954V132.281H29.3491V136.084H15.3825ZM46.0217 121.318C45.8726 120.8 45.6631 120.342 45.3932 119.944C45.1233 119.539 44.793 119.198 44.4024 118.921C44.0189 118.637 43.5785 118.42 43.0814 118.271C42.5913 118.122 42.048 118.048 41.4514 118.048C40.3363 118.048 39.3562 118.325 38.5111 118.879C37.673 119.433 37.0196 120.239 36.5508 121.297C36.0821 122.348 35.8477 123.634 35.8477 125.153C35.8477 126.673 36.0785 127.966 36.5402 129.031C37.0018 130.097 37.6552 130.91 38.5004 131.471C39.3456 132.025 40.3435 132.302 41.494 132.302C42.5381 132.302 43.4294 132.117 44.168 131.748C44.9138 131.371 45.4819 130.842 45.8726 130.161C46.2703 129.479 46.4692 128.673 46.4692 127.742L47.4067 127.881H41.7817V124.408H50.9116V127.156C50.9116 129.074 50.5068 130.722 49.6971 132.099C48.8875 133.47 47.7724 134.528 46.352 135.274C44.9315 136.013 43.3051 136.382 41.4727 136.382C39.4273 136.382 37.6304 135.931 36.0821 135.029C34.5338 134.12 33.3264 132.831 32.4599 131.162C31.6006 129.486 31.1709 127.497 31.1709 125.196C31.1709 123.428 31.4265 121.851 31.9379 120.466C32.4564 119.074 33.1808 117.895 34.1112 116.929C35.0416 115.963 36.1247 115.228 37.3605 114.724C38.5963 114.219 39.9351 113.967 41.3768 113.967C42.6126 113.967 43.7632 114.148 44.8285 114.511C45.8939 114.866 46.8385 115.37 47.6623 116.023C48.4933 116.677 49.1716 117.455 49.6971 118.357C50.2227 119.251 50.5601 120.239 50.7092 121.318H46.0217ZM54.3767 114.266H60.0656L66.0741 128.925H66.3298L72.3383 114.266H78.0272V136.084H73.5528V121.883H73.3717L67.7254 135.977H64.6785L59.0322 121.83H58.8511V136.084H54.3767V114.266ZM81.8278 136.084V114.266H90.4358C92.0835 114.266 93.4898 114.56 94.6545 115.15C95.8264 115.732 96.7177 116.56 97.3285 117.632C97.9464 118.697 98.2554 119.951 98.2554 121.393C98.2554 122.842 97.9429 124.088 97.3179 125.132C96.6929 126.169 95.7873 126.964 94.6013 127.518C93.4223 128.072 91.9947 128.349 90.3186 128.349H84.5551V124.642H89.5729C90.4535 124.642 91.1851 124.521 91.7675 124.28C92.3498 124.038 92.7831 123.676 93.0672 123.193C93.3584 122.71 93.504 122.11 93.504 121.393C93.504 120.668 93.3584 120.058 93.0672 119.56C92.7831 119.063 92.3463 118.687 91.7568 118.431C91.1744 118.168 90.4393 118.037 89.5515 118.037H86.4408V136.084H81.8278ZM93.6105 126.155L99.0331 136.084H93.9408L88.6354 126.155H93.6105ZM100.684 118.069V114.266H118.603V118.069H111.924V136.084H107.364V118.069H100.684Z" fill="white"/>
</svg>
