<svg width="133" height="171" viewBox="0 0 133 171" fill="none" xmlns="http://www.w3.org/2000/svg">
<path d="M8.75755 57L124.242 9.16458" stroke="#FE8B04" stroke-width="17" stroke-linecap="round"/>
<path d="M72.3765 34V107.723L64 92L40 107.723V160H83" stroke="#FE8B04" stroke-width="21" stroke-miterlimit="16"/>
<line x1="87.5" y1="57" x2="87.5" y2="126" stroke="#FFE500" stroke-width="9"/>
<path d="M116 13C116 12.4477 115.552 12 115 12C114.448 12 114 12.4477 114 13L116 13ZM114 65L109.226 75L120.773 75L116 65L114 65ZM114 14.9375C114 15.4898 114.448 15.9375 115 15.9375C115.552 15.9375 116 15.4898 116 14.9375L114 14.9375ZM116 18.8125C116 18.2602 115.552 17.8125 115 17.8125C114.448 17.8125 114 18.2602 114 18.8125L116 18.8125ZM114 22.6875C114 23.2398 114.448 23.6875 115 23.6875C115.552 23.6875 116 23.2398 116 22.6875L114 22.6875ZM116 26.5625C116 26.0102 115.552 25.5625 115 25.5625C114.448 25.5625 114 26.0102 114 26.5625L116 26.5625ZM114 30.4375C114 30.9898 114.448 31.4375 115 31.4375C115.552 31.4375 116 30.9898 116 30.4375L114 30.4375ZM116 34.3125C116 33.7602 115.552 33.3125 115 33.3125C114.448 33.3125 114 33.7602 114 34.3125L116 34.3125ZM114 38.1875C114 38.7398 114.448 39.1875 115 39.1875C115.552 39.1875 116 38.7398 116 38.1875L114 38.1875ZM116 42.0625C116 41.5102 115.552 41.0625 115 41.0625C114.448 41.0625 114 41.5102 114 42.0625L116 42.0625ZM114 45.9375C114 46.4898 114.448 46.9375 115 46.9375C115.552 46.9375 116 46.4898 116 45.9375L114 45.9375ZM116 49.8125C116 49.2602 115.552 48.8125 115 48.8125C114.448 48.8125 114 49.2602 114 49.8125L116 49.8125ZM114 53.6875C114 54.2398 114.448 54.6875 115 54.6875C115.552 54.6875 116 54.2398 116 53.6875L114 53.6875ZM116 57.5625C116 57.0102 115.552 56.5625 115 56.5625C114.448 56.5625 114 57.0102 114 57.5625L116 57.5625ZM114 61.4375C114 61.9898 114.448 62.4375 115 62.4375C115.552 62.4375 116 61.9898 116 61.4375L114 61.4375ZM116 65.3125C116 64.7602 115.552 64.3125 115 64.3125C114.448 64.3125 114 64.7602 114 65.3125L116 65.3125ZM114 69.1875C114 69.7398 114.448 70.1875 115 70.1875C115.552 70.1875 116 69.7398 116 69.1875L114 69.1875ZM116 73.0625C116 72.5102 115.552 72.0625 115 72.0625C114.448 72.0625 114 72.5102 114 73.0625L116 73.0625ZM114 13L114 14.9375L116 14.9375L116 13L114 13ZM114 18.8125L114 22.6875L116 22.6875L116 18.8125L114 18.8125ZM114 26.5625L114 30.4375L116 30.4375L116 26.5625L114 26.5625ZM114 34.3125L114 38.1875L116 38.1875L116 34.3125L114 34.3125ZM114 42.0625L114 45.9375L116 45.9375L116 42.0625L114 42.0625ZM114 49.8125L114 53.6875L116 53.6875L116 49.8125L114 49.8125ZM114 57.5625L114 61.4375L116 61.4375L116 57.5625L114 57.5625ZM114 65.3125L114 69.1875L116 69.1875L116 65.3125L114 65.3125Z" fill="#FFE500"/>
<circle cx="115" cy="13" r="5" fill="black"/>
</svg>
