<svg width="1402" height="633" viewBox="0 0 1402 633" fill="none" xmlns="http://www.w3.org/2000/svg">
<path d="M238 191H303V220.5H265.926V282.928V370.585H238V191Z" fill="#FF6B00"/>
<g filter="url(#filter0_d_63_3)">
<path d="M388.504 399C379.437 399 372.456 397.821 367.56 395.464C362.664 393.107 359.128 390.115 356.952 386.488C354.957 382.861 353.688 379.053 353.144 375.064C352.781 371.075 352.6 367.448 352.6 364.184V311.96C352.6 309.24 352.781 305.976 353.144 302.168C353.688 298.179 354.957 294.28 356.952 290.472C359.128 286.664 362.664 283.491 367.56 280.952C372.637 278.413 379.619 277.144 388.504 277.144H446.984C458.952 277.144 468.291 278.323 475 280.68C481.891 282.856 486.696 286.483 489.416 291.56C492.317 296.637 493.768 303.437 493.768 311.96V352.216H446.168C429.848 352.216 416.52 351.853 406.184 351.128C396.029 350.403 389.229 349.949 385.784 349.768V364.728C385.603 371.981 389.955 375.608 398.84 375.608H412.712C422.504 375.608 432.024 375.517 441.272 375.336C450.701 374.973 459.315 374.611 467.112 374.248C474.909 373.704 481.165 373.251 485.88 372.888L496.76 390.568C496.76 396.189 478.899 399 443.176 399H388.504ZM385.784 328.824H460.584V311.416C460.584 307.789 460.131 305.251 459.224 303.8C458.499 302.349 456.141 301.443 452.152 301.08C448.163 300.717 441.363 300.536 431.752 300.536H398.84C390.136 300.536 385.784 304.163 385.784 311.416V328.824ZM532.152 399V277.144H554.456L561.256 280.408C566.515 279.501 572.952 278.776 580.568 278.232C588.184 277.507 597.251 277.144 607.768 277.144H621.368C626.627 277.144 631.704 277.869 636.6 279.32C641.496 280.589 645.123 282.493 647.48 285.032C652.195 282.675 658.723 280.771 667.064 279.32C675.405 277.869 686.285 277.144 699.704 277.144H713.304C722.371 277.144 729.352 278.413 734.248 280.952C739.144 283.491 742.589 286.664 744.584 290.472C746.76 294.28 748.029 298.179 748.392 302.168C748.936 305.976 749.208 309.24 749.208 311.96V399H716.024V311.416C716.024 304.163 711.672 300.536 702.968 300.536H664.888C661.987 300.536 659.992 300.899 658.904 301.624C657.816 302.349 657.272 303.981 657.272 306.52V399H624.088V311.416C624.088 304.163 619.736 300.536 611.032 300.536H573.496C570.051 300.536 567.784 300.899 566.696 301.624C565.789 302.168 565.336 303.8 565.336 306.52V399H532.152ZM823.759 399C809.978 399 800.005 395.827 793.839 389.48C787.674 382.952 784.591 374.067 784.591 362.824C784.591 351.037 787.765 341.971 794.111 335.624C800.639 329.277 810.522 326.104 823.759 326.104H837.631C851.231 326.104 863.471 326.467 874.351 327.192C885.231 327.917 894.207 328.643 901.279 329.368V311.416C901.279 309.784 901.098 308.152 900.735 306.52C900.373 304.707 899.285 303.256 897.471 302.168C895.658 301.08 892.575 300.536 888.223 300.536H874.623C854.858 300.536 838.357 300.899 825.119 301.624C811.882 302.168 802.906 302.712 798.191 303.256L795.199 282.584C795.199 280.045 802.09 278.504 815.871 277.96C829.653 277.416 852.682 277.144 884.959 277.144H898.559C907.626 277.144 914.607 278.413 919.503 280.952C924.399 283.491 927.845 286.664 929.839 290.472C932.015 294.28 933.285 298.179 933.647 302.168C934.191 305.976 934.463 309.24 934.463 311.96V399H912.159L901.551 393.56C893.935 394.829 884.778 396.099 874.079 397.368C863.381 398.456 851.141 399 837.359 399H823.759ZM830.831 375.608H893.119C897.109 375.608 899.466 375.245 900.191 374.52C900.917 373.795 901.279 371.528 901.279 367.72V346.776H830.831C825.935 346.776 822.49 347.955 820.495 350.312C818.682 352.669 817.775 356.387 817.775 361.464C817.775 366.541 818.863 370.168 821.039 372.344C823.215 374.52 826.479 375.608 830.831 375.608ZM1021.33 399C1007.55 399 998.12 396.099 993.043 390.296C987.966 384.493 985.427 375.789 985.427 364.184V300.536H963.123V277.144H974.547C977.992 277.144 980.44 276.6 981.891 275.512C983.523 274.424 984.702 272.248 985.427 268.984L990.867 239.88H1018.61V277.144H1075.19V300.536H1018.61V364.456C1018.61 368.989 1019.7 371.981 1021.88 373.432C1024.05 374.883 1027.32 375.608 1031.67 375.608H1070.02L1072.74 396.28C1068.93 396.824 1063.13 397.459 1055.33 398.184C1047.53 398.728 1039.01 399 1029.76 399H1021.33ZM1135.88 399C1123.73 399 1115.12 398.365 1110.04 397.096C1104.97 395.827 1102.43 394.557 1102.43 393.288L1110.59 372.888C1115.85 373.432 1125.46 374.067 1139.42 374.792C1153.56 375.336 1170.97 375.608 1191.64 375.608H1205.24C1209.78 375.608 1212.59 374.429 1213.68 372.072C1214.94 369.533 1215.58 366.179 1215.58 362.008C1215.58 357.837 1214.85 354.483 1213.4 351.944C1212.13 349.405 1209.41 348.136 1205.24 348.136H1138.33C1125.64 348.136 1116.48 345.779 1110.86 341.064C1105.24 336.168 1102.43 328.915 1102.43 319.304V308.424C1102.43 305.885 1102.7 302.893 1103.24 299.448C1103.79 296.003 1105.15 292.557 1107.32 289.112C1109.5 285.667 1113.04 282.856 1117.93 280.68C1122.83 278.323 1129.63 277.144 1138.33 277.144H1213.4C1224.28 277.144 1231.99 277.779 1236.52 279.048C1241.06 280.317 1243.32 281.587 1243.32 282.856L1240.6 303.256C1235.34 302.712 1225.64 302.168 1211.5 301.624C1197.36 300.899 1180.04 300.536 1159.55 300.536H1145.95C1141.41 300.536 1138.51 301.805 1137.24 304.344C1136.16 306.701 1135.61 309.512 1135.61 312.776C1135.61 316.221 1136.16 319.123 1137.24 321.48C1138.51 323.656 1141.41 324.744 1145.95 324.744H1212.86C1225.19 324.744 1234.26 327.283 1240.06 332.36C1245.86 337.437 1248.76 343.875 1248.76 351.672V367.72C1248.76 370.984 1248.49 374.429 1247.95 378.056C1247.58 381.683 1246.32 385.128 1244.14 388.392C1241.96 391.475 1238.43 394.013 1233.53 396.008C1228.64 398.003 1221.74 399 1212.86 399H1135.88Z" fill="#070604" fill-opacity="0.76" shape-rendering="crispEdges"/>
</g>
<rect x="6.5" y="6.5" width="1389" height="620" stroke="#FF5C00" stroke-width="13"/>
<rect x="12" y="466" width="1376" height="157" fill="#FF5C00"/>
<path d="M146.952 182.13V111.5H181V153L285.648 153L413.601 153V182.13L146.952 182.13Z" fill="#FF6B00"/>
<path d="M453 112V181H418.483V147.219H305.62H186V112L453 112Z" fill="#FF6B00"/>
<path d="M303 406H238V378.09H275.074V315.907V230H303V406Z" fill="#FF6B00"/>
<defs>
<filter id="filter0_d_63_3" x="348.6" y="239.88" width="904.164" height="167.12" filterUnits="userSpaceOnUse" color-interpolation-filters="sRGB">
<feFlood flood-opacity="0" result="BackgroundImageFix"/>
<feColorMatrix in="SourceAlpha" type="matrix" values="0 0 0 0 0 0 0 0 0 0 0 0 0 0 0 0 0 0 127 0" result="hardAlpha"/>
<feOffset dy="4"/>
<feGaussianBlur stdDeviation="2"/>
<feComposite in2="hardAlpha" operator="out"/>
<feColorMatrix type="matrix" values="0 0 0 0 0 0 0 0 0 0 0 0 0 0 0 0 0 0 0.25 0"/>
<feBlend mode="normal" in2="BackgroundImageFix" result="effect1_dropShadow_63_3"/>
<feBlend mode="normal" in="SourceGraphic" in2="effect1_dropShadow_63_3" result="shape"/>
</filter>
</defs>
</svg>
